<svg width="22" height="22" viewBox="0 0 11 11" fill="none" xmlns="http://www.w3.org/2000/svg">
<path fill-rule="evenodd" clip-rule="evenodd" d="M10.1927 1.71929C10.2882 1.62704 10.3644 1.5167 10.4168 1.39469C10.4692 1.27269 10.4968 1.14147 10.498 1.00869C10.4991 0.87591 10.4738 0.744231 10.4235 0.621334C10.3732 0.498438 10.299 0.386786 10.2051 0.292893C10.1112 0.199 9.99955 0.124747 9.87666 0.0744663C9.75376 0.0241854 9.62208 -0.00111606 9.4893 3.77571e-05C9.35652 0.00119157 9.2253 0.0287779 9.1033 0.0811869C8.98129 0.133596 8.87095 0.209778 8.7787 0.305288L5.2427 3.84129L1.7077 0.305288C1.52019 0.117648 1.26583 0.0121793 1.00056 0.0120855C0.735286 0.0119918 0.480843 0.11728 0.293202 0.304788C0.105562 0.492296 9.38336e-05 0.746665 6.25814e-08 1.01193C-9.37084e-05 1.27721 0.105195 1.53165 0.292703 1.71929L3.8287 5.25529L0.292703 8.79129C0.199858 8.8842 0.126223 8.99449 0.0760008 9.11585C0.0257788 9.23722 -4.63653e-05 9.36729 6.25814e-08 9.49864C4.64905e-05 9.62999 0.0259633 9.76004 0.0762711 9.88138C0.126579 10.0027 0.200292 10.1129 0.293202 10.2058C0.386113 10.2986 0.4964 10.3723 0.617768 10.4225C0.739136 10.4727 0.869208 10.4985 1.00056 10.4985C1.1319 10.4984 1.26196 10.4725 1.38329 10.4222C1.50462 10.3719 1.61486 10.2982 1.7077 10.2053L5.2427 6.66929L8.7787 10.2053C8.87095 10.3008 8.98129 10.377 9.1033 10.4294C9.2253 10.4818 9.35652 10.5094 9.4893 10.5105C9.62208 10.5117 9.75376 10.4864 9.87666 10.4361C9.99955 10.3858 10.1112 10.3116 10.2051 10.2177C10.299 10.1238 10.3732 10.0121 10.4235 9.88924C10.4738 9.76635 10.4991 9.63467 10.498 9.50189C10.4968 9.36911 10.4692 9.23789 10.4168 9.11588C10.3644 8.99388 10.2882 8.88354 10.1927 8.79129L6.6567 5.25529L10.1927 1.71929Z" fill="#333333"/>
</svg>
